
<!-- Stand Alone Logo -->
<!-- Robaire Galliath -->
<!--   38 April 17    -->

<svg width = "55" height = "70">

	<!-- F Body -->
	<path d = "M35 70 l0 -50 a20 20 0 0 1 20 -20 l0 10 a10 10 0 0 0 -10 10 l0 50 Z" fill = "#444"/>
	<!-- F Cross -->
	<path d = "M55 40 l-40 0 l0 -10 l40 0 Z" fill = "#444"/>

	<!-- B Body -->
	<path d = "M0 0 l0 50 a20 20 0 1 0 20 -20 l0 10 a10 10 0 1 1 -10 10 l0 -50 Z" fill = "#80955d"/>
	<!-- Arrow Head -->
	<path d = "M20 25 l0 20 l-12.5 -10 Z" fill = "#80955d"/>

</svg>

